# xmcd
#
# Track frame offsets:
# 150
# 19895
# 36398
# 57064
# 73631
# 91245
# 107748
# 124245
# 146245
# 160957
# 183631
# 202771
# 226527
# 244803
# 261860
# 281674
#
# Disc length: 3918 seconds
#
# Revision: 0
# Processed by: cddbd v1.4PL0 Copyright (c) Steve Scherf et al.
# Submitted via: Audion 3.0.2 (http://www.panic.com/audion/)
#
DISCID=e40f4c10
DTITLE=kenny - kenny
DYEAR=1900
DGENRE=
TTITLE0=all
TTITLE1=all
TTITLE2=a;;a
TTITLE3=a;;a
TTITLE4=a;;a
TTITLE5=a..a
TTITLE6=a..a
TTITLE7=a..a
TTITLE8=a..a
TTITLE9=a..a
TTITLE10=lal
TTITLE11=ak
TTITLE12=all
TTITLE13=all
TTITLE14=all
TTITLE15=all
EXTD=
EXTT0=
EXTT1=
EXTT2=
EXTT3=
EXTT4=
EXTT5=
EXTT6=
EXTT7=
EXTT8=
EXTT9=
EXTT10=
EXTT11=
EXTT12=
EXTT13=
EXTT14=
EXTT15=
PLAYORDER=
